<svg width="40" height="40" viewBox="0 0 40 40" fill="none" xmlns="http://www.w3.org/2000/svg">
<path d="M32.0774 14.0852C35.6908 14.0852 38.62 11.156 38.62 7.54261C38.62 3.92923 35.6908 1 32.0774 1C28.464 1 25.5348 3.92923 25.5348 7.54261C25.5348 11.156 28.464 14.0852 32.0774 14.0852Z" stroke="#103EB4" stroke-width="2" stroke-miterlimit="10" stroke-linecap="round" stroke-linejoin="round"/>
<path d="M7.54261 25.5348C11.156 25.5348 14.0852 22.6056 14.0852 18.9922C14.0852 15.3788 11.156 12.4496 7.54261 12.4496C3.92923 12.4496 1 15.3788 1 18.9922C1 22.6056 3.92923 25.5348 7.54261 25.5348Z" stroke="#103EB4" stroke-width="2" stroke-miterlimit="10" stroke-linecap="round" stroke-linejoin="round"/>
<path d="M32.0774 38.62C35.6908 38.62 38.62 35.6908 38.62 32.0774C38.62 28.464 35.6908 25.5348 32.0774 25.5348C28.464 25.5348 25.5348 28.464 25.5348 32.0774C25.5348 35.6908 28.464 38.62 32.0774 38.62Z" stroke="#103EB4" stroke-width="2" stroke-miterlimit="10" stroke-linecap="round" stroke-linejoin="round"/>
<path d="M25.5348 28.8061L14.0852 22.2635" stroke="#103EB4" stroke-width="2" stroke-miterlimit="10" stroke-linecap="round" stroke-linejoin="round"/>
<path d="M25.5348 9.17828L14.0852 15.7209" stroke="#103EB4" stroke-width="2" stroke-miterlimit="10" stroke-linecap="round" stroke-linejoin="round"/>
</svg>
