<?xml version="1.0" encoding="utf-8"?><svg xmlns="http://www.w3.org/2000/svg" xmlns:xlink="http://www.w3.org/1999/xlink"><symbol fill="none" viewBox="0 0 11 9" id="arrow" xmlns="http://www.w3.org/2000/svg"><path d="M11 4.5L7.212 0H.114l3.788 4.5L.115 9h7.097L11 4.5z" fill="#103EB4"/></symbol><symbol fill="none" viewBox="0 0 11 9" id="arrow-green" xmlns="http://www.w3.org/2000/svg"><path d="M10.885 4.5L7.096 0H0l3.788 4.5L0 9h7.096l3.789-4.5z" fill="#3AC1B0"/></symbol><symbol fill="none" viewBox="0 0 19 19" id="check" xmlns="http://www.w3.org/2000/svg"><path d="M9.5 0C4.236 0 0 4.269 0 9.5S4.269 19 9.5 19 19 14.731 19 9.5 14.764 0 9.5 0zM7.67 14.186l-.096.064-3.883-3.915 1.83-1.798 2.085 2.118 5.874-5.873 1.83 1.83-7.64 7.574z" fill="#3AC1B0"/></symbol><symbol fill="none" viewBox="0 0 48 48" id="compass" xmlns="http://www.w3.org/2000/svg"><path d="M24 47c12.703 0 23-10.297 23-23S36.703 1 24 1 1 11.297 1 24s10.297 23 23 23z" stroke="#103EB4" stroke-width="2" stroke-miterlimit="10" stroke-linecap="round" stroke-linejoin="round"/><path d="M37 11l-12.44 6.52c-2.96 1.64-5.4 4.06-7.06 7.02L11 37l12.56-6.58a17.89 17.89 0 0 0 6.88-6.82L37 11z" stroke="#103EB4" stroke-width="2" stroke-miterlimit="10" stroke-linecap="round" stroke-linejoin="round"/><path d="M24 7a1 1 0 1 0 0-2 1 1 0 0 0 0 2zM6 25a1 1 0 1 0 0-2 1 1 0 0 0 0 2zm18 18a1 1 0 1 0 0-2 1 1 0 0 0 0 2zm18-18a1 1 0 1 0 0-2 1 1 0 0 0 0 2z" fill="#fff"/></symbol><symbol fill="none" viewBox="0 0 34 40" id="fire" xmlns="http://www.w3.org/2000/svg"><path d="M13.591 1c8.923 5.22 32.692 29.74 9.615 38 3.75-3.387 5.231-6.311 4.193-10.822-1.404-4.808-4.712-8.41-8.597-11.648.443 5.667-.615 9.88-3.307 12.49-.462-2.246-1.654-4.064-3.635-5.402-1.865 3.552-3.904 7.22-3.634 9.087.115 2.71 2.903 4.18 5.346 6.279-4.5-.959-9.289-2-11.539-6.61C-3.274 21.438 13.591 9.262 13.591 1z" stroke="#103EB4" stroke-width="2" stroke-miterlimit="10" stroke-linecap="round" stroke-linejoin="round"/></symbol><symbol fill="none" viewBox="0 0 39 35" id="heart" xmlns="http://www.w3.org/2000/svg"><path d="M19.5 5.478C14.683-2.499.87.672 1 11.102 1.117 21.245 14.585 25.392 19.5 34c4.916-8.608 18.384-12.755 18.5-22.898.13-10.43-13.683-13.6-18.5-5.624z" stroke="#103EB4" stroke-width="2" stroke-miterlimit="10" stroke-linecap="round" stroke-linejoin="round"/></symbol><symbol fill="none" viewBox="0 0 40 40" id="link" xmlns="http://www.w3.org/2000/svg"><path d="M32.077 14.085a6.543 6.543 0 1 0 0-13.085 6.543 6.543 0 0 0 0 13.085zM7.543 25.535a6.543 6.543 0 1 0 0-13.085 6.543 6.543 0 0 0 0 13.085zM32.077 38.62a6.543 6.543 0 1 0 0-13.085 6.543 6.543 0 0 0 0 13.085zm-6.542-9.814l-11.45-6.543m11.45-13.085l-11.45 6.543" stroke="#103EB4" stroke-width="2" stroke-miterlimit="10" stroke-linecap="round" stroke-linejoin="round"/></symbol><symbol fill="none" viewBox="0 0 40 40" id="message" xmlns="http://www.w3.org/2000/svg"><path d="M29.395 35.987l9.225 2.633-2.928-8.767c1.865-2.895 2.928-6.346 2.928-10.043C38.62 9.424 30.196 1 19.81 1S1 9.424 1 19.81s8.424 18.81 18.81 18.81c3.5 0 6.788-.965 9.585-2.633zm-.589-20.267H10.814m17.992 4.908H10.814m17.992 4.907H10.814" stroke="#103EB4" stroke-width="2" stroke-miterlimit="10" stroke-linecap="round" stroke-linejoin="round"/></symbol><symbol fill="none" viewBox="0 0 48 48" id="mountain" xmlns="http://www.w3.org/2000/svg"><path d="M13 29l2 4 4-6 4 6 4-6 4 6 2.82-4.68" stroke="#103EB4" stroke-width="2" stroke-miterlimit="10" stroke-linejoin="round"/><path clip-rule="evenodd" d="M23 13L1 47h46L23 13z" stroke="#103EB4" stroke-width="2" stroke-miterlimit="10" stroke-linecap="round" stroke-linejoin="round"/><path d="M23 1v12m12-4H23V3h12l-2 3 2 3z" stroke="#103EB4" stroke-width="2" stroke-miterlimit="10" stroke-linecap="round" stroke-linejoin="round"/></symbol><symbol fill="none" viewBox="0 0 48 48" id="rocket" xmlns="http://www.w3.org/2000/svg"><path d="M8.541 34.996c-1.573.49-3.103 1.403-4.42 2.7a10.788 10.788 0 0 0-2.7 4.42c-.488 1.572-.552 3.187-.19 4.654 1.466.361 3.081.297 4.654-.192 1.572-.488 3.102-1.402 4.42-2.699a10.788 10.788 0 0 0 2.699-4.42M8.732 21.225l-6.014 6.014h6.014c5.398 2.02 9.521 5.866 12.029 12.029v6.014l6.014-6.014-2.996-9.01c7.268-.51 13.494-3.104 18.042-9.012 4.293-5.95 5.675-12.496 4.506-19.53-7.46-1.722-14.026-.383-19.53 4.505-5.335 5.59-8.352 11.604-9.011 18.043l-9.054-3.039z" stroke="#103EB4" stroke-width="2" stroke-miterlimit="10" stroke-linecap="round" stroke-linejoin="round"/><path d="M35.786 16.464a4.25 4.25 0 1 0 0-8.5 4.25 4.25 0 0 0 0 8.5z" stroke="#103EB4" stroke-width="2" stroke-miterlimit="10" stroke-linecap="round" stroke-linejoin="round"/></symbol><symbol fill="none" viewBox="0 0 40 40" id="star" xmlns="http://www.w3.org/2000/svg"><path d="M19.81 1l4.433 14.377H38.62L26.99 24.26l4.45 14.361-11.63-8.882L8.18 38.62l4.45-14.361L1 15.377h14.377L19.81 1z" stroke="#103EB4" stroke-width="2" stroke-miterlimit="10" stroke-linecap="round" stroke-linejoin="round"/></symbol></svg>