<svg width="48" height="48" viewBox="0 0 48 48" fill="none" xmlns="http://www.w3.org/2000/svg">
<path d="M8.54113 34.9963C6.96849 35.4851 5.43819 36.399 4.12057 37.6954C2.80295 39.013 1.91033 40.543 1.42154 42.1157C0.932746 43.6883 0.869063 45.3033 1.23035 46.7697C2.69673 47.131 4.312 47.0673 5.88464 46.5785C7.45728 46.0897 8.98733 45.1758 10.3049 43.8795C11.6226 42.5619 12.5152 41.0318 13.004 39.4592" stroke="#103EB4" stroke-width="2" stroke-miterlimit="10" stroke-linecap="round" stroke-linejoin="round"/>
<path d="M8.73233 21.225L2.71814 27.2392H8.73233C14.1303 29.2582 18.2533 33.1048 20.761 39.2679V45.2821L26.7752 39.2679L23.7786 30.2571C31.0467 29.7471 37.2735 27.1541 41.8214 21.2461C46.1143 15.2955 47.4957 8.75007 46.3268 1.7157C38.8674 -0.00570792 32.3007 1.33315 26.7964 6.22109C21.4622 11.8103 18.4445 17.8246 17.7857 24.2639L8.73233 21.225Z" stroke="#103EB4" stroke-width="2" stroke-miterlimit="10" stroke-linecap="round" stroke-linejoin="round"/>
<path d="M35.786 16.4644C38.1334 16.4644 40.0364 14.5614 40.0364 12.214C40.0364 9.86658 38.1334 7.96362 35.786 7.96362C33.4386 7.96362 31.5356 9.86658 31.5356 12.214C31.5356 14.5614 33.4386 16.4644 35.786 16.4644Z" stroke="#103EB4" stroke-width="2" stroke-miterlimit="10" stroke-linecap="round" stroke-linejoin="round"/>
</svg>
